# xmcd CD database file
#
# Track frame offsets:
#	150
#	12387
#	31299
#	44830
#	69245
#	87177
#	107868
#	129646
#	150928
#	162546
#
# Disc length: 2384 seconds
#
# Revision: 0
# Processed by: cddbd v1.5.1PL0 Copyright (c) Steve Scherf et al.
# Submitted via: CDex 1.51
#
DISCID=7e094e0a
DTITLE=Rubén Blades - Caminando
DYEAR=1991
DGENRE=Salsa
TTITLE0=Caminando
TTITLE1=Camaleon
TTITLE2=Mientras duerme la ciudad
TTITLE3=Ella se esconde
TTITLE4=Tengan fe
TTITLE5=Obalue
TTITLE6=Prohibido Olvidar
TTITLE7=Cipriano Armenteros
TTITLE8=El
TTITLE9=Raiz de Sueños
EXTD=YEAR: 1991
EXTT0=
EXTT1=
EXTT2=
EXTT3=
EXTT4=
EXTT5=
EXTT6=
EXTT7=
EXTT8=
EXTT9=
PLAYORDER=
